<svg id="Camada_1" data-name="Camada 1" xmlns="http://www.w3.org/2000/svg" viewBox="0 0 32 32"><defs><style>.cls-1{fill:#aa1dcc;}.cls-2{fill:#6b1f7e;}.cls-3{fill:#00fc9c;}.cls-4{fill:#010001;}</style></defs><path class="cls-1" d="M6.24,10.25a3.29,3.29,0,0,1,.22,1.46c0,.79,0,1.57,0,2.36,0,.49-.21.77-.74.77-1,0-2.09,0-3.13,0-.33,0-.51-.34-.84-.23,0-1.35,0-2.7,0-4,0-.28.05-.33.33-.33C3.46,10.26,4.85,10.25,6.24,10.25Z"/><path class="cls-2" d="M1.74,16.63a2.12,2.12,0,0,1,1.43-.35c.82,0,1.65,0,2.48,0a.69.69,0,0,1,.8.78c0,1,0,2,0,3.07a.66.66,0,0,1-.77.74c-1,0-2,0-3.07,0-.34,0-.55-.26-.87-.25Z"/><path class="cls-3" d="M12.38,10.25A24.18,24.18,0,0,1,12.5,14c0,.7-.17.87-.86.87H8.7c-.62,0-.8-.19-.81-.81,0-1,0-2,0-2.94,0-.3.26-.53.14-.83Z"/><path class="cls-4" d="M15,19c0,.46,0,.91,0,1.36,0,.19.12.51-.22.5s-.21-.33-.21-.53c0-1,0-2-.05-3A1.28,1.28,0,0,0,13.2,16a1.33,1.33,0,0,0-1.44,1.12,3.33,3.33,0,0,0-.07.7c0,.77,0,1.53,0,2.3,0,.23.18.66-.23.65s-.19-.41-.19-.64c0-.86,0-1.73,0-2.6S10.69,16,9.83,16s-1.38.57-1.4,1.55,0,1.85,0,2.77c0,.18.08.45-.21.47S8,20.54,8,20.35c0-1,0-2,0-3a1.73,1.73,0,0,1,1.18-1.68,1.72,1.72,0,0,1,2,.52c.24.29.36.22.57,0a1.73,1.73,0,0,1,2-.49A1.78,1.78,0,0,1,15,17.43c0,.51,0,1,0,1.53Z"/><path class="cls-4" d="M15.91,18.17A2.55,2.55,0,0,1,18.5,15.6a2.63,2.63,0,1,1-2.59,2.57Zm.48,0a2,2,0,1,0,4.08,0,2,2,0,1,0-4.08,0Z"/><path class="cls-4" d="M26.2,20.85c-.23,0-.25-.15-.18-.32.56-1.49,1.11-3,1.68-4.47a.51.51,0,0,1,.5-.35.52.52,0,0,1,.48.38c.57,1.49,1.12,3,1.68,4.47,0,.1.11.23-.07.28a.25.25,0,0,1-.31-.1,3.38,3.38,0,0,1-.18-.44c-.46-1.21-.9-2.43-1.36-3.64-.05-.14-.06-.35-.25-.36s-.21.21-.26.35c-.47,1.25-.92,2.51-1.39,3.76C26.47,20.58,26.46,20.82,26.2,20.85Z"/><path class="cls-4" d="M25.83,15.92c0,.09-.06.19-.1.28l-1.5,4c-.11.3-.23.61-.62.61s-.47-.32-.57-.6q-.78-2-1.53-4.08c-.05-.13-.25-.34,0-.44s.33.14.4.32c.46,1.24.91,2.47,1.38,3.7.07.19.06.51.32.5s.24-.33.31-.52l1.31-3.54a1.59,1.59,0,0,1,.21-.41s.18,0,.27,0S25.84,15.83,25.83,15.92Z"/><rect x="1.62" y="10" width="4.97" height="4.97" rx="0.79"/><rect class="cls-4" x="7.65" y="10" width="4.97" height="4.97" rx="0.79"/><rect class="cls-4" x="1.62" y="16.03" width="4.97" height="4.97" rx="0.72"/></svg>